# xmcd
#
# Track frame offsets:
#	150
#	15509
#	30361
#	52480
#	82389
#	98411
#	113997
#	141110
#	159917
#	180360
#	197543
#
# Disc length: 2916 seconds
#
# Revision: 1
# Processed by: cddbd v1.4PL0 Copyright (c) Steve Scherf et al.
# Submitted via: CDmax 2.0
#
DISCID=850b620b
DTITLE=Shabfas - Live recording from July 29th 2003
DYEAR=2003
DGENRE=Blues
TTITLE0=Shabfas Shuffle - original tune
TTITLE1=Hot Cha
TTITLE2=Coming Home
TTITLE3=Mr. Magic
TTITLE4=I'll play the blues for you
TTITLE5=Dancin' in the streets
TTITLE6=Blues in C/When you got a heartache
TTITLE7=Sex Machine
TTITLE8=Stones in my Pathway
TTITLE9=Yonder's wall
TTITLE10=Drivin' Wheel
EXTD=
EXTT0=
EXTT1=
EXTT2=
EXTT3=
EXTT4=
EXTT5=
EXTT6=
EXTT7=
EXTT8=
EXTT9=
EXTT10=
PLAYORDER=
